<svg xmlns="http://www.w3.org/2000/svg" width="40" height="49.943" viewBox="0 0 40 49.943">
  <path id="Subtraction_3" data-name="Subtraction 3" d="M-1965,49.942h0a147.284,147.284,0,0,1-10-11.308,76.973,76.973,0,0,1-6.875-10.026c-2.073-3.728-3.125-6.852-3.125-9.286a18.872,18.872,0,0,1,5.858-13.662A20.228,20.228,0,0,1-1965,0a20.229,20.229,0,0,1,14.142,5.659A18.871,18.871,0,0,1-1945,19.321c0,2.434-1.051,5.558-3.125,9.286A76.937,76.937,0,0,1-1955,38.633a147.252,147.252,0,0,1-10,11.308Zm0-37.441a6.95,6.95,0,0,0-7.058,6.82,6.95,6.95,0,0,0,7.058,6.82,6.95,6.95,0,0,0,7.059-6.82A6.95,6.95,0,0,0-1965,12.5Z" transform="translate(1985)" fill="#e25d5d"/>
</svg>
